<svg width="50" height="60" viewBox="0 0 50 60" fill="none" xmlns="http://www.w3.org/2000/svg">
<circle cx="25" cy="35" r="25" fill="#FFDE67"/>
<path fill-rule="evenodd" clip-rule="evenodd" d="M43.9873 18.7363L1.41603 43.3149C0.49892 40.7136 0 37.9151 0 35C0 21.1929 11.1929 10 25 10C32.5968 10 39.4022 13.3884 43.9873 18.7363Z" fill="white" fill-opacity="0.6"/>
<path d="M15 14.5V8.06291C15 7.33312 15.7564 6.84913 16.4191 7.15495L20.5607 9.0665C21.0743 9.3035 21.682 9.06784 21.9014 8.54659L24.5784 2.18888C24.9219 1.37296 26.0781 1.37296 26.4216 2.18888L29.0858 8.5163C29.3101 9.04891 29.9378 9.28111 30.4547 9.02267L34.0528 7.22361C34.7177 6.89116 35.5 7.37465 35.5 8.11803V14.5C35.5 15.0523 35.0523 15.5 34.5 15.5H16C15.4477 15.5 15 15.0523 15 14.5Z" fill="#FFDE67"/>
</svg>
