<svg width="183" height="53" viewBox="0 0 183 53" fill="none" xmlns="http://www.w3.org/2000/svg">
<path d="M0 25.5209C0 23.2044 2.53709 21.7109 4.61131 22.7423C10.2169 25.5298 19.8645 29.7064 27.4286 29.7538C39.0025 29.8263 43.8554 20.4301 55.4287 20.2926C67.4244 20.1501 72.5752 29.8237 84.5716 29.7538C96.3565 29.685 101.382 21.0287 113.143 20.2926C127.675 19.3831 134.583 29.9945 149.143 29.7538C158.92 29.5921 171.913 24.8425 178.553 22.1358C180.58 21.3093 182.857 22.7915 182.857 24.9808V49.5719C182.857 51.2287 181.514 52.5719 179.857 52.5719H3C1.34315 52.5719 0 51.2287 0 49.5719V25.5209Z" fill="#3EC2EC" fill-opacity="0.57"/>
<path d="M32.5492 0.0102209L22.3662 1.80629L5.60537 25.8396L7.08239 34.2138L27.5643 30.6012L29.3695 40.8363L39.4947 39.0505L36.2125 20.4412L15.8174 24.0384L32.5492 0.0102209Z" fill="black"/>
<path d="M137.502 35.0795V4H130V35.0795H137.502Z" fill="black"/>
<path fill-rule="evenodd" clip-rule="evenodd" d="M122.387 40.888L114.769 40.5395L112.731 17.285L108.532 40.2541L108.469 40.2513L100.851 39.9028L98.1133 8.66543L105.731 9.01397L107.42 28.2767L110.898 9.25034L112.031 9.30218L112.031 9.30217L119.649 9.6507L121.337 28.9136L124.816 9.88707L128.09 10.0369L122.449 40.8909L122.387 40.888Z" fill="black"/>
<path fill-rule="evenodd" clip-rule="evenodd" d="M167.096 19.8615L159.91 37.8132L154.594 36.4693L154.594 36.4694L151.417 35.666L153.589 16.4465L146.402 34.3983L139.009 32.5291L150.663 3.41797L154.939 4.49909L158.117 5.30246L155.494 28.5045L164.17 6.83285L171.563 8.70203L171.563 8.70203L171.624 8.71734L168.101 39.8842L164.924 39.0809L167.096 19.8615Z" fill="black"/>
<path d="M42 13.7171V3H51.6454L42 13.7171Z" fill="black"/>
<path d="M93.3856 16.665L92.3299 6L82.7314 6.95015L93.3856 16.665Z" fill="black"/>
<path d="M62.3624 24.4341L62.3624 34.0795L51.6453 34.0795L62.3624 24.4341Z" fill="black"/>
<path d="M74.1778 29.3354L75.128 38.9338L85.7929 37.8781L74.1778 29.3354Z" fill="black"/>
<path d="M52.2252 13.3205V3H62.4064V13.3205L52.2252 23.759V34.0795H42.0439V23.759L52.2252 13.3205Z" fill="black"/>
<path d="M82.6816 17.3261L81.6649 7.05572L71 8.11144L72.0166 18.3818L83.7099 27.7138L84.7265 37.9841L95.3915 36.9284L94.3748 26.658L82.6816 17.3261Z" fill="black"/>
</svg>
